<?xml version="1.0" standalone="no"?>
<!DOCTYPE svg PUBLIC "-//W3C//DTD SVG 20010904//EN"
 "http://www.w3.org/TR/2001/REC-SVG-20010904/DTD/svg10.dtd">
<svg version="1.0" xmlns="http://www.w3.org/2000/svg"
 width="766.000000pt" height="1280.000000pt" viewBox="0 0 766.000000 1280.000000"
 preserveAspectRatio="xMidYMid meet">
<metadata>
Created by potrace 1.15, written by Peter Selinger 2001-2017
</metadata>
<g transform="translate(0.000000,1280.000000) scale(0.100000,-0.100000)"
fill="#000000" stroke="none">
<path d="M3680 12524 c-728 -37 -1352 -263 -1900 -688 -119 -92 -376 -343
-467 -456 -303 -377 -488 -790 -566 -1263 -21 -132 -21 -133 -24 -2224 l-4
-2093 -330 0 -331 0 -29 -29 -29 -29 0 -2744 c0 -2584 1 -2744 18 -2764 9 -12
27 -27 39 -33 16 -8 1024 -11 3752 -11 l3731 0 32 29 33 29 3 2719 c1 1495 0
2733 -3 2752 -4 18 -18 44 -32 57 l-26 24 -2898 0 -2899 0 0 2033 c0 2105 1
2116 40 2292 38 172 139 405 242 560 262 393 705 695 1203 820 329 83 659 94
992 34 768 -137 1389 -659 1577 -1324 58 -203 58 -211 63 -892 l5 -631 121
-73 c67 -40 148 -89 181 -110 l58 -37 -63 -37 c-35 -21 -117 -67 -181 -103
l-118 -65 0 -323 0 -324 505 0 505 0 0 1158 c0 712 -4 1192 -10 1247 -37 330
-125 615 -280 912 -237 454 -591 827 -1065 1121 -72 45 -135 85 -141 91 -7 5
-15 7 -18 4 -3 -4 -6 0 -6 7 0 7 -3 10 -7 7 -3 -4 -12 1 -20 11 -8 9 -12 11
-8 5 4 -8 1 -11 -9 -7 -8 3 -17 12 -20 20 -3 7 -12 11 -21 8 -8 -3 -15 -1 -15
6 0 6 -4 8 -10 5 -5 -3 -10 -1 -10 5 0 6 -4 8 -10 5 -5 -3 -10 -1 -10 5 0 6
-4 8 -10 5 -5 -3 -10 -1 -10 5 0 6 -4 8 -10 5 -5 -3 -10 -2 -10 4 0 6 -7 7
-17 4 -11 -4 -14 -3 -9 5 5 8 2 10 -8 6 -9 -3 -16 -1 -16 5 0 6 -7 8 -17 4
-11 -4 -14 -3 -9 5 5 8 2 10 -8 6 -9 -3 -16 -1 -16 6 0 6 -4 8 -10 5 -5 -3
-10 -2 -10 4 0 6 -6 8 -14 5 -7 -3 -20 1 -27 9 -8 7 -20 12 -27 9 -6 -2 -12 1
-12 7 0 6 -7 7 -17 4 -11 -4 -14 -3 -9 5 4 8 2 10 -7 6 -8 -3 -18 -1 -21 5 -4
6 -14 7 -23 4 -10 -4 -14 -2 -10 4 4 6 1 11 -6 10 -35 -1 -58 4 -53 12 4 5 -4
7 -16 3 -13 -3 -19 -1 -15 5 5 7 -1 9 -15 5 -14 -3 -19 -1 -14 6 4 7 2 10 -6
7 -8 -3 -70 8 -138 24 -290 69 -687 108 -950 95z"/>
</g>
</svg>
